1.9Hzlow3min_grf.mot
version=1
nRows=17
nColumns 19
inDegrees=yes
endheader
time	1_ground_force_vx	1_ground_force_vy	1_ground_force_vz	1_ground_force_px	1_ground_force_py	1_ground_force_pz	1_ground_torque_x	1_ground_torque_y	1_ground_torque_z	2_ground_force_vx	2_ground_force_vy	2_ground_force_vz	2_ground_force_px	2_ground_force_py	2_ground_force_pz	2_ground_torque_x	2_ground_torque_y	2_ground_torque_z
            3.751500	            0.320764	            3.244058	            0.196541	           -0.233013	            0.005581	           -0.255695	            0.065234	           -0.101510	            0.012971	            0.703557	           -0.182783	            0.327541	           -0.232311	            0.006130	           -0.833667	           -0.319144	           -0.076237	           -0.150936
            3.752000	            0.366463	            2.163062	            0.054221	           -0.233013	            0.005581	           -0.255695	            0.165677	            0.064826	            0.034226	            0.699528	            0.922442	            0.237627	           -0.232311	            0.006130	           -0.833667	           -0.300264	           -0.113644	           -0.245330
            3.752500	            0.274858	            2.343114	            0.101078	           -0.233013	            0.005581	           -0.255695	            0.182439	            0.184792	            0.068379	            0.795119	            0.371172	            0.000975	           -0.232311	            0.006130	           -0.833667	           -0.206176	           -0.151317	           -0.188954
            3.753000	            0.274696	            1.982976	            0.007820	           -0.233013	            0.005581	           -0.255695	            0.092842	            0.036715	            0.105575	            0.469952	           -0.367609	            0.280055	           -0.232311	            0.006130	           -0.833667	           -0.243925	           -0.104122	           -0.207619
            3.753500	            0.137362	            2.162821	            0.100646	           -0.233013	            0.005581	           -0.255695	            0.145201	           -0.166770	            0.117500	            0.562884	           -0.182286	            0.046032	           -0.232311	            0.006130	           -0.833667	           -0.262866	           -0.047877	           -0.094308
            3.754000	            0.138012	            2.341907	            0.376554	           -0.233013	            0.005581	           -0.255695	            0.133150	           -0.332741	            0.022822	            0.610440	           -0.366600	            0.139211	           -0.232311	            0.006130	           -0.833667	           -0.319221	           -0.057264	           -0.169718
            3.754500	            0.412875	            2.162088	            0.283387	           -0.233013	            0.005581	           -0.255695	            0.118403	           -0.166239	            0.035307	            0.656042	            0.001197	            0.328218	           -0.232311	            0.006130	           -0.833667	           -0.356673	           -0.085892	           -0.132103
            3.755000	            0.321351	            2.522209	            0.376872	           -0.233013	            0.005581	           -0.255695	            0.095399	            0.018666	            0.013437	            0.702851	            0.001701	            0.234342	           -0.232311	            0.006130	           -0.833667	           -0.225141	           -0.094870	           -0.132193
            3.755500	            0.091633	            2.162616	            0.146616	           -0.233013	            0.005581	           -0.255695	            0.274503	            0.101455	            0.078778	            0.467252	            0.369319	            0.188827	           -0.232311	            0.006130	           -0.833667	           -0.337664	           -0.161043	           -0.245482
            3.756000	            0.596247	            2.162124	            0.282932	           -0.233013	            0.005581	           -0.255695	            0.080726	            0.157518	            0.007011	            0.513519	            0.552967	            0.377177	           -0.232311	            0.006130	           -0.833667	           -0.337512	           -0.189804	           -0.132482
            3.756500	            0.274286	            3.605563	           -0.031079	           -0.233013	            0.005581	           -0.255695	            0.168567	            0.009482	           -0.007576	            0.516096	           -0.182957	            0.186836	           -0.232311	            0.006130	           -0.833667	           -0.356509	           -0.142272	           -0.226557
            3.757000	            0.275412	            1.801530	            0.282182	           -0.233013	            0.005581	           -0.255695	           -0.031693	           -0.184576	           -0.026645	            0.609652	           -0.181447	           -0.141700	           -0.232311	            0.006130	           -0.833667	           -0.262737	           -0.085620	           -0.113293
            3.757500	            0.183286	            2.342899	            0.147161	           -0.233013	            0.005581	           -0.255695	            0.086512	           -0.277115	           -0.012465	            0.512108	            0.921933	            0.190779	           -0.232311	            0.006130	           -0.833667	           -0.262975	           -0.028635	           -0.188491
            3.758000	            0.550371	            2.342380	            0.283819	           -0.233013	            0.005581	           -0.255695	            0.005775	           -0.231063	            0.078763	            0.514061	            0.369823	            0.094951	           -0.232311	            0.006130	           -0.833667	           -0.187662	           -0.084811	           -0.264127
            3.758500	            0.091746	            2.162419	            0.192472	           -0.233013	            0.005581	           -0.255695	            0.141105	            0.055295	            0.060114	            0.607014	            0.554979	           -0.092144	           -0.232311	            0.006130	           -0.833667	           -0.262847	           -0.066379	           -0.207476
            3.759000	            0.412845	            1.080887	            0.187037	           -0.233013	            0.005581	           -0.255695	            0.198085	            0.157211	            0.055333	            0.796592	            0.001704	            0.328158	           -0.232311	            0.006130	           -0.833667	           -0.337775	           -0.123434	           -0.188797
            3.759500	            0.183789	            2.702448	            0.377987	           -0.233013	            0.005581	           -0.255695	            0.057854	            0.073814	            0.064290	            0.558334	            1.105916	            0.285272	           -0.232311	            0.006130	           -0.833667	           -0.262532	           -0.151520	           -0.188930
